<?xml version="1.0" encoding="utf-8"?>
<!-- Generator: Adobe Illustrator 16.0.0, SVG Export Plug-In . SVG Version: 6.00 Build 0)  -->
<!DOCTYPE svg PUBLIC "-//W3C//DTD SVG 1.1//EN" "http://www.w3.org/Graphics/SVG/1.1/DTD/svg11.dtd">
<svg version="1.1" id="Ebene_1" xmlns="http://www.w3.org/2000/svg" xmlns:xlink="http://www.w3.org/1999/xlink" x="0px" y="0px"
	 width="381.363px" height="203.312px" viewBox="0 0 381.363 203.312" enable-background="new 0 0 381.363 203.312"
	 xml:space="preserve">
<g>
	<path d="M4.193,192.25v6.94h6.001c2.386,0,3.904-0.94,3.904-3.472c0-2.385-1.518-3.469-4.157-3.469H4.193z M4.193,182.127v6.363
		h5.495c2.422,0,3.687-0.977,3.687-3.182c0-2.062-1.265-3.182-3.687-3.182H4.193z M13.917,190.297
		c2.856,0.759,4.592,2.82,4.592,5.965c0,4.157-2.604,6.688-7.629,6.688H0v-24.582h10.158c5.024,0,7.628,2.349,7.628,6.29
		c0,2.675-1.447,4.771-3.869,5.565V190.297z"/>
	<path d="M26.894,178.368h4.194v15.905c0,3.217,1.3,5.495,5.278,5.495c4.446,0,5.205-2.819,5.205-5.495v-15.905h4.193v15.905
		c0,6.363-3.614,9.037-9.435,9.037c-5.856,0-9.435-2.674-9.435-9.037V178.368z"/>
	<polygon points="69.695,202.949 59.03,186.572 58.958,186.572 58.958,202.949 54.874,202.949 54.874,178.368 59.067,178.368 
		69.948,195.177 70.021,195.177 70.021,178.368 74.105,178.368 74.105,202.949 	"/>
	<path d="M87.408,182.127v17.063h4.736c5.097,0,6.254-3.65,6.254-8.712s-1.157-8.352-6.254-8.352H87.408z M92.144,178.368
		c8.278,0,10.664,5.204,10.664,12.11c0,7.012-2.386,12.471-10.664,12.471h-8.929v-24.581H92.144z"/>
	<polygon points="127.533,199.19 127.533,202.949 111.193,202.949 111.193,178.367 127.352,178.367 127.352,182.127 
		115.387,182.127 115.387,188.345 125.726,188.345 125.726,192.105 115.387,192.105 115.387,199.19 	"/>
	<path d="M149.657,196.227c0-2.64-3.181-3.218-5.929-3.977c-4.158-1.121-7.447-3.398-7.447-7.557c0-4.808,3.904-6.687,8.712-6.687
		c2.748,0,5.278,0.361,8.495,1.3l-0.939,3.545c-3.796-0.905-5.604-1.086-7.556-1.086c-3.073,0-4.302,1.338-4.302,3.073
		c0,2.385,3.145,3.181,5.965,3.868c4.158,0.939,7.411,2.892,7.411,7.194c0,5.061-3.904,7.41-9.074,7.41
		c-2.747,0-5.892-0.361-9.074-1.303l0.688-3.542c3.831,0.905,6.434,1.085,8.386,1.085
		C148.066,199.552,149.657,198.033,149.657,196.227"/>
	<path d="M166.646,182.127v17.063h4.736c5.097,0,6.254-3.65,6.254-8.712s-1.157-8.352-6.254-8.352H166.646z M171.382,178.368
		c8.278,0,10.664,5.204,10.664,12.11c0,7.012-2.386,12.471-10.664,12.471h-8.929v-24.581H171.382z"/>
	<path d="M194.627,190.008h5.495c2.422,0,4.119-1.156,4.119-3.904c0-2.675-1.59-3.977-3.976-3.977h-5.639V190.008z M199.037,193.769
		h-4.41v9.182h-4.194v-24.583h10.303c5.026,0,7.846,3.109,7.846,7.736c0,3.398-1.699,6.182-5.17,7.014l6.037,9.833h-4.952
		L199.037,193.769z"/>
	<path d="M217.508,178.368h4.193v15.905c0,3.217,1.301,5.495,5.279,5.495c4.446,0,5.206-2.819,5.206-5.495v-15.905h4.191v15.905
		c0,6.363-3.612,9.037-9.434,9.037c-5.857,0-9.437-2.674-9.437-9.037V178.368z"/>
	<path d="M255.828,199.552c1.95,0,3.578-0.181,7.375-1.086l0.938,3.544c-3.217,0.939-5.784,1.301-8.676,1.301
		c-8.532,0-10.701-5.783-10.701-12.832c0-6.906,2.169-12.473,10.701-12.473c2.892,0,5.459,0.361,8.676,1.301l-0.938,3.544
		c-3.797-0.905-5.425-1.084-7.375-1.084c-5.135,0-6.652,3.649-6.652,8.712C249.176,195.9,250.693,199.552,255.828,199.552"/>
	<polygon points="279.721,191.997 276.215,196.082 276.215,202.95 272.021,202.95 272.021,178.368 276.215,178.368 276.215,190.297 
		286.447,178.368 291.506,178.368 282.794,188.634 291.616,202.95 286.373,202.95 	"/>
	<polygon points="316.052,199.19 316.052,202.949 299.711,202.949 299.711,178.367 315.871,178.367 315.871,182.127 
		303.905,182.127 303.905,188.345 314.244,188.345 314.244,192.105 303.905,192.105 303.905,199.19 	"/>
	<path d="M328.994,190.008h5.494c2.423,0,4.119-1.156,4.119-3.904c0-2.675-1.59-3.977-3.976-3.977h-5.638V190.008z M333.403,193.769
		h-4.409v9.182h-4.195v-24.583h10.303c5.026,0,7.846,3.109,7.846,7.736c0,3.398-1.699,6.182-5.17,7.014l6.036,9.833h-4.951
		L333.403,193.769z"/>
	<polygon points="368.215,199.19 368.215,202.949 351.874,202.949 351.874,178.367 368.033,178.367 368.033,182.127 
		356.068,182.127 356.068,188.345 366.407,188.345 366.407,192.105 356.068,192.105 356.068,199.19 	"/>
	<rect x="376.962" y="178.368" width="4.194" height="24.582"/>
	<path d="M123.064,61.5c0-13.586-11.014-24.6-24.6-24.6h-71.34c-1.359,0-2.46-1.101-2.46-2.46V6.15c0-3.396-2.754-6.15-6.15-6.15
		H6.215C2.818,0,0.064,2.754,0.064,6.15V36.9v24.6v36.9c0,3.397,2.754,6.15,6.151,6.15h12.299c3.396,0,6.15-2.753,6.15-6.15V63.96
		c0-1.358,1.101-2.46,2.46-2.46h68.88c1.359,0,2.46,1.102,2.46,2.46v38.13c0,1.359-1.101,2.46-2.46,2.46H30.792
		c-3.384,0-6.128,2.744-6.128,6.128v12.345c0,3.384,2.744,6.128,6.128,6.128h67.672c13.586,0,24.6-11.015,24.6-24.601V61.5z"/>
	<path fill="#FFCC00" d="M375.214,36.9h-67.65c-13.586,0-24.6,11.014-24.6,24.6v36.866c0,3.397,2.754,6.15,6.149,6.15h12.299
		c3.397,0,6.15-2.753,6.15-6.15l0.014-34.393c0.001-1.358,1.103-2.459,2.46-2.459l65.178-0.014c3.396,0,6.149-2.754,6.149-6.15
		v-12.3C381.363,39.653,378.609,36.9,375.214,36.9"/>
	<path fill="#FF0000" d="M264.514,36.932V6.15c0-3.397-2.754-6.15-6.15-6.15h-12.299c-3.398,0-6.151,2.753-6.151,6.15v28.321
		c0,1.359-1.1,2.46-2.46,2.46h-71.339c-13.586,0-24.601,11.014-24.601,24.6v43.018c0,13.586,11.015,24.6,24.601,24.6h67.652
		c3.392,0,6.142-2.75,6.142-6.142v-12.316c0-3.392-2.75-6.142-6.142-6.142h-65.182c-1.358,0-2.46-1.102-2.46-2.46V64.002
		c0-1.358,1.102-2.46,2.46-2.46h68.868c1.36,0,2.46,1.102,2.46,2.46v34.443c0,3.399,2.755,6.153,6.154,6.153h12.296
		c3.396,0,6.15-2.753,6.15-6.149V61.542h0.001L264.514,36.932L264.514,36.932z"/>
	<path d="M375.213,104.55h-12.3c-3.396,0-6.149,2.753-6.149,6.15v12.299c0,3.396,2.753,6.149,6.149,6.149h12.3
		c3.396,0,6.149-2.753,6.149-6.149V110.7C381.362,107.303,378.608,104.55,375.213,104.55"/>
</g>
</svg>
