o metal.png
v 0.000000 0.000000 -0.038652
v 0.000000 2.500000 -0.038652
v 0.007541 0.000000 -0.037910
v 0.007541 2.500000 -0.037910
v 0.014792 0.000000 -0.035710
v 0.014792 2.500000 -0.035710
v 0.021474 0.000000 -0.032138
v 0.021474 2.500000 -0.032138
v 0.027331 0.000000 -0.027331
v 0.027331 2.500000 -0.027331
v 0.032138 0.000000 -0.021474
v 0.032138 2.500000 -0.021474
v 0.035710 0.000000 -0.014792
v 0.035710 2.500000 -0.014792
v 0.037910 0.000000 -0.007541
v 0.037910 2.500000 -0.007541
v 0.038652 0.000000 -0.000000
v 0.038652 2.500000 -0.000000
v 0.037910 0.000000 0.007541
v 0.037910 2.500000 0.007541
v 0.035710 0.000000 0.014792
v 0.035710 2.500000 0.014792
v 0.032138 0.000000 0.021474
v 0.032138 2.500000 0.021474
v 0.027331 0.000000 0.027331
v 0.027331 2.500000 0.027331
v 0.021474 0.000000 0.032138
v 0.021474 2.500000 0.032138
v 0.014792 0.000000 0.035710
v 0.014792 2.500000 0.035710
v 0.007541 0.000000 0.037910
v 0.007541 2.500000 0.037910
v 0.000000 0.000000 0.038652
v 0.000000 2.500000 0.038652
v -0.007541 0.000000 0.037910
v -0.007541 2.500000 0.037910
v -0.014792 0.000000 0.035710
v -0.014792 2.500000 0.035710
v -0.021474 0.000000 0.032138
v -0.021474 2.500000 0.032138
v -0.027331 0.000000 0.027331
v -0.027331 2.500000 0.027331
v -0.032138 0.000000 0.021474
v -0.032138 2.500000 0.021474
v -0.035710 0.000000 0.014792
v -0.035710 2.500000 0.014792
v -0.037909 0.000000 0.007541
v -0.037909 2.500000 0.007541
v -0.038652 0.000000 -0.000000
v -0.038652 2.500000 -0.000000
v -0.037909 0.000000 -0.007541
v -0.037909 2.500000 -0.007541
v -0.035710 0.000000 -0.014792
v -0.035710 2.500000 -0.014792
v -0.032138 0.000000 -0.021474
v -0.032138 2.500000 -0.021474
v -0.027331 0.000000 -0.027331
v -0.027331 2.500000 -0.027331
v -0.021474 0.000000 -0.032138
v -0.021474 2.500000 -0.032138
v -0.014791 0.000000 -0.035710
v -0.014791 2.500000 -0.035710
v -0.007541 0.000000 -0.037910
v -0.007541 2.500000 -0.037910
vn 0.098000 0.000000 -0.995200
vn 0.290300 0.000000 -0.956900
vn 0.471400 0.000000 -0.881900
vn 0.634400 0.000000 -0.773000
vn 0.773000 0.000000 -0.634400
vn 0.881900 0.000000 -0.471400
vn 0.956900 0.000000 -0.290300
vn 0.995200 0.000000 -0.098000
vn 0.995200 0.000000 0.098000
vn 0.956900 0.000000 0.290300
vn 0.881900 0.000000 0.471400
vn 0.773000 0.000000 0.634400
vn 0.634400 0.000000 0.773000
vn 0.471400 0.000000 0.881900
vn 0.290300 0.000000 0.956900
vn 0.098000 0.000000 0.995200
vn -0.098000 0.000000 0.995200
vn -0.290300 0.000000 0.956900
vn -0.471400 0.000000 0.881900
vn -0.634400 0.000000 0.773000
vn -0.773000 0.000000 0.634400
vn -0.881900 0.000000 0.471400
vn -0.956900 0.000000 0.290300
vn -0.995200 0.000000 0.098000
vn -0.995200 0.000000 -0.098000
vn -0.956900 0.000000 -0.290300
vn -0.881900 0.000000 -0.471400
vn -0.773000 0.000000 -0.634400
vn -0.634400 0.000000 -0.773000
vn -0.471400 0.000000 -0.881900
vn 0.000000 1.000000 0.000000
vn -0.098000 0.000000 -0.995200
vn -0.290300 0.000000 -0.956900
vn 0.000000 1.000000 -0.000300
vn 0.000000 1.000000 0.000300

vt 0.0 0.0
vt 1.0 1.0
vt 1.0 0.0

f 2/1/1 4/2/1 3/3/1
f 4/1/2 6/2/2 5/3/2
f 6/1/3 8/2/3 7/3/3
f 8/1/4 10/2/4 9/3/4
f 10/1/5 12/2/5 11/3/5
f 12/1/6 14/2/6 13/3/6
f 14/1/7 16/2/7 15/3/7
f 16/1/8 18/2/8 17/3/8
f 18/1/9 20/2/9 19/3/9
f 20/1/10 22/2/10 21/3/10
f 22/1/11 24/2/11 23/3/11
f 24/1/12 26/2/12 25/3/12
f 26/1/13 28/2/13 27/3/13
f 28/1/14 30/2/14 29/3/14
f 30/1/15 32/2/15 31/3/15
f 32/1/16 34/2/16 33/3/16
f 34/1/17 36/2/17 35/3/17
f 36/1/18 38/2/18 37/3/18
f 38/1/19 40/2/19 39/3/19
f 40/1/20 42/2/20 41/3/20
f 42/1/21 44/2/21 43/3/21
f 44/1/22 46/2/22 45/3/22
f 46/1/23 48/2/23 47/3/23
f 48/1/24 50/2/24 49/3/24
f 50/1/25 52/2/25 51/3/25
f 52/1/26 54/2/26 53/3/26
f 54/1/27 56/2/27 55/3/27
f 56/1/28 58/2/28 57/3/28
f 58/1/29 60/2/29 59/3/29
f 60/1/30 62/2/30 61/3/30
f 20/1/31 52/2/31 36/3/31
f 64/1/32 2/2/32 1/3/32
f 62/1/33 64/2/33 63/3/33
f 1/1/1 2/2/1 3/3/1
f 3/1/2 4/2/2 5/3/2
f 5/1/3 6/2/3 7/3/3
f 7/1/4 8/2/4 9/3/4
f 9/1/5 10/2/5 11/3/5
f 11/1/6 12/2/6 13/3/6
f 13/1/7 14/2/7 15/3/7
f 15/1/8 16/2/8 17/3/8
f 17/1/9 18/2/9 19/3/9
f 19/1/10 20/2/10 21/3/10
f 21/1/11 22/2/11 23/3/11
f 23/1/12 24/2/12 25/3/12
f 25/1/13 26/2/13 27/3/13
f 27/1/14 28/2/14 29/3/14
f 29/1/15 30/2/15 31/3/15
f 31/1/16 32/2/16 33/3/16
f 33/1/17 34/2/17 35/3/17
f 35/1/18 36/2/18 37/3/18
f 37/1/19 38/2/19 39/3/19
f 39/1/20 40/2/20 41/3/20
f 41/1/21 42/2/21 43/3/21
f 43/1/22 44/2/22 45/3/22
f 45/1/23 46/2/23 47/3/23
f 47/1/24 48/2/24 49/3/24
f 49/1/25 50/2/25 51/3/25
f 51/1/26 52/2/26 53/3/26
f 53/1/27 54/2/27 55/3/27
f 55/1/28 56/2/28 57/3/28
f 57/1/29 58/2/29 59/3/29
f 59/1/30 60/2/30 61/3/30
f 8/1/34 6/2/34 4/3/34
f 4/1/31 10/2/31 8/3/31
f 20/1/31 14/2/31 12/3/31
f 20/1/31 18/2/31 16/3/31
f 24/1/31 22/2/31 20/3/31
f 28/1/31 26/2/31 24/3/31
f 32/1/35 30/2/35 28/3/35
f 36/1/35 34/2/35 32/3/35
f 40/1/34 38/2/34 36/3/34
f 44/1/31 42/2/31 40/3/31
f 48/1/31 46/2/31 44/3/31
f 52/1/31 50/2/31 48/3/31
f 56/1/31 54/2/31 52/3/31
f 52/1/31 58/2/31 56/3/31
f 64/1/35 62/2/35 60/3/35
f 4/1/34 2/2/34 64/3/34
f 12/1/31 10/2/31 4/3/31
f 20/1/31 16/2/31 14/3/31
f 36/1/31 24/2/31 20/3/31
f 36/1/31 32/2/31 28/3/31
f 52/1/31 40/2/31 36/3/31
f 52/1/31 48/2/31 44/3/31
f 60/1/31 58/2/31 52/3/31
f 4/1/31 64/2/31 60/3/31
f 20/1/31 12/2/31 4/3/31
f 36/1/31 28/2/31 24/3/31
f 52/1/31 44/2/31 40/3/31
f 4/1/31 60/2/31 52/3/31
f 52/1/31 20/2/31 4/3/31
f 63/1/32 64/2/32 1/3/32
f 61/1/33 62/2/33 63/3/33