o metal.png
v 0.000000 0.000000 -0.038652
v 0.000000 2.500000 -0.038652
v 0.007541 0.000000 -0.037910
v 0.007541 2.500000 -0.037910
v 0.014792 0.000000 -0.035710
v 0.014792 2.500000 -0.035710
v 0.021474 0.000000 -0.032138
v 0.021474 2.500000 -0.032138
v 0.027331 0.000000 -0.027331
v 0.027331 2.500000 -0.027331
v 0.032138 0.000000 -0.021474
v 0.032138 2.500000 -0.021474
v 0.035710 0.000000 -0.014792
v 0.035710 2.500000 -0.014792
v 0.037910 0.000000 -0.007541
v 0.037910 2.500000 -0.007541
v 0.038652 0.000000 -0.000000
v 0.038652 2.500000 -0.000000
v 0.037910 0.000000 0.007541
v 0.037910 2.500000 0.007541
v 0.035710 0.000000 0.014792
v 0.035710 2.500000 0.014792
v 0.032138 0.000000 0.021474
v 0.032138 2.500000 0.021474
v 0.027331 0.000000 0.027331
v 0.027331 2.500000 0.027331
v 0.021474 0.000000 0.032138
v 0.021474 2.500000 0.032138
v 0.014792 0.000000 0.035710
v 0.014792 2.500000 0.035710
v 0.007541 0.000000 0.037910
v 0.007541 2.500000 0.037910
v 0.000000 0.000000 0.038652
v 0.000000 2.500000 0.038652
v -0.007541 0.000000 0.037910
v -0.007541 2.500000 0.037910
v -0.014792 0.000000 0.035710
v -0.014792 2.500000 0.035710
v -0.021474 0.000000 0.032138
v -0.021474 2.500000 0.032138
v -0.027331 0.000000 0.027331
v -0.027331 2.500000 0.027331
v -0.032138 0.000000 0.021474
v -0.032138 2.500000 0.021474
v -0.035710 0.000000 0.014792
v -0.035710 2.500000 0.014792
v -0.037909 0.000000 0.007541
v -0.037909 2.500000 0.007541
v -0.038652 0.000000 -0.000000
v -0.038652 2.500000 -0.000000
v -0.037909 0.000000 -0.007541
v -0.037909 2.500000 -0.007541
v -0.035710 0.000000 -0.014792
v -0.035710 2.500000 -0.014792
v -0.032138 0.000000 -0.021474
v -0.032138 2.500000 -0.021474
v -0.027331 0.000000 -0.027331
v -0.027331 2.500000 -0.027331
v -0.021474 0.000000 -0.032138
v -0.021474 2.500000 -0.032138
v -0.014791 0.000000 -0.035710
v -0.014791 2.500000 -0.035710
v -0.007541 0.000000 -0.037910
v -0.007541 2.500000 -0.037910
vn 0.098000 0.000000 -0.995200
vn 0.290300 0.000000 -0.956900
vn 0.471400 0.000000 -0.881900
vn 0.634400 0.000000 -0.773000
vn 0.773000 0.000000 -0.634400
vn 0.881900 0.000000 -0.471400
vn 0.956900 0.000000 -0.290300
vn 0.995200 0.000000 -0.098000
vn 0.995200 0.000000 0.098000
vn 0.956900 0.000000 0.290300
vn 0.881900 0.000000 0.471400
vn 0.773000 0.000000 0.634400
vn 0.634400 0.000000 0.773000
vn 0.471400 0.000000 0.881900
vn 0.290300 0.000000 0.956900
vn 0.098000 0.000000 0.995200
vn -0.098000 0.000000 0.995200
vn -0.290300 0.000000 0.956900
vn -0.471400 0.000000 0.881900
vn -0.634400 0.000000 0.773000
vn -0.773000 0.000000 0.634400
vn -0.881900 0.000000 0.471400
vn -0.956900 0.000000 0.290300
vn -0.995200 0.000000 0.098000
vn -0.995200 0.000000 -0.098000
vn -0.956900 0.000000 -0.290300
vn -0.881900 0.000000 -0.471400
vn -0.773000 0.000000 -0.634400
vn -0.634400 0.000000 -0.773000
vn -0.471400 0.000000 -0.881900
vn 0.000000 1.000000 0.000000
vn -0.098000 0.000000 -0.995200
vn -0.290300 0.000000 -0.956900
vn 0.000000 1.000000 -0.000300
vn 0.000000 1.000000 0.000300
f 2//1 4//1 3//1
f 4//2 6//2 5//2
f 6//3 8//3 7//3
f 8//4 10//4 9//4
f 10//5 12//5 11//5
f 12//6 14//6 13//6
f 14//7 16//7 15//7
f 16//8 18//8 17//8
f 18//9 20//9 19//9
f 20//10 22//10 21//10
f 22//11 24//11 23//11
f 24//12 26//12 25//12
f 26//13 28//13 27//13
f 28//14 30//14 29//14
f 30//15 32//15 31//15
f 32//16 34//16 33//16
f 34//17 36//17 35//17
f 36//18 38//18 37//18
f 38//19 40//19 39//19
f 40//20 42//20 41//20
f 42//21 44//21 43//21
f 44//22 46//22 45//22
f 46//23 48//23 47//23
f 48//24 50//24 49//24
f 50//25 52//25 51//25
f 52//26 54//26 53//26
f 54//27 56//27 55//27
f 56//28 58//28 57//28
f 58//29 60//29 59//29
f 60//30 62//30 61//30
f 20//31 52//31 36//31
f 64//32 2//32 1//32
f 62//33 64//33 63//33
f 1//1 2//1 3//1
f 3//2 4//2 5//2
f 5//3 6//3 7//3
f 7//4 8//4 9//4
f 9//5 10//5 11//5
f 11//6 12//6 13//6
f 13//7 14//7 15//7
f 15//8 16//8 17//8
f 17//9 18//9 19//9
f 19//10 20//10 21//10
f 21//11 22//11 23//11
f 23//12 24//12 25//12
f 25//13 26//13 27//13
f 27//14 28//14 29//14
f 29//15 30//15 31//15
f 31//16 32//16 33//16
f 33//17 34//17 35//17
f 35//18 36//18 37//18
f 37//19 38//19 39//19
f 39//20 40//20 41//20
f 41//21 42//21 43//21
f 43//22 44//22 45//22
f 45//23 46//23 47//23
f 47//24 48//24 49//24
f 49//25 50//25 51//25
f 51//26 52//26 53//26
f 53//27 54//27 55//27
f 55//28 56//28 57//28
f 57//29 58//29 59//29
f 59//30 60//30 61//30
f 8//34 6//34 4//34
f 4//31 10//31 8//31
f 20//31 14//31 12//31
f 20//31 18//31 16//31
f 24//31 22//31 20//31
f 28//31 26//31 24//31
f 32//35 30//35 28//35
f 36//35 34//35 32//35
f 40//34 38//34 36//34
f 44//31 42//31 40//31
f 48//31 46//31 44//31
f 52//31 50//31 48//31
f 56//31 54//31 52//31
f 52//31 58//31 56//31
f 64//35 62//35 60//35
f 4//34 2//34 64//34
f 12//31 10//31 4//31
f 20//31 16//31 14//31
f 36//31 24//31 20//31
f 36//31 32//31 28//31
f 52//31 40//31 36//31
f 52//31 48//31 44//31
f 60//31 58//31 52//31
f 4//31 64//31 60//31
f 20//31 12//31 4//31
f 36//31 28//31 24//31
f 52//31 44//31 40//31
f 4//31 60//31 52//31
f 52//31 20//31 4//31
f 63//32 64//32 1//32
f 61//33 62//33 63//33