# Blender v2.78 (sub 0) OBJ File: ''
# www.blender.org
o LBiceps.002
v 1.038260 0.187000 -0.157146
v 1.083693 0.180628 -0.140463
v 1.085948 0.180628 -0.165415
v 1.126029 0.161947 -0.124916
v 1.130385 0.161947 -0.173119
v 1.197826 0.093500 -0.184812
v 1.207817 0.048399 -0.094883
v 1.216233 0.048399 -0.188003
v 1.126029 -0.161947 -0.124916
v 1.130385 -0.161947 -0.173119
v 1.083693 -0.180628 -0.140463
v 1.085948 -0.180628 -0.165415
v 1.122965 -0.132229 -0.055611
v 1.190281 -0.093500 -0.101323
v 1.142002 -0.093500 -0.032791
v 1.162385 -0.132229 -0.111566
v 1.207817 -0.048399 -0.094883
v 1.153969 -0.048399 -0.018446
v 1.213799 0.000000 -0.092687
v 1.153969 0.048399 -0.018446
v 1.190281 0.093500 -0.101323
v 1.142002 0.093500 -0.032791
v 1.162385 0.132229 -0.111566
v 1.098155 0.161947 -0.085350
v 1.069264 0.180628 -0.119982
v 1.046528 0.180628 -0.109459
v 1.054232 0.161947 -0.065021
v 1.122965 0.132229 -0.055610
v 1.065925 0.093500 0.002420
v 1.158051 0.000000 -0.013553
v 1.065925 -0.093500 0.002420
v 1.054232 -0.161947 -0.065021
v 1.098155 -0.161947 -0.085350
v 1.046528 -0.180628 -0.109459
v 1.069264 -0.180628 -0.119982
v 1.021576 -0.180628 -0.111714
v 1.060849 -0.132229 -0.026861
v 1.069117 -0.048399 0.020827
v 1.070205 0.000000 0.027105
v 0.973800 0.000000 0.018393
v 1.069117 0.048399 0.020827
v 0.975996 0.048399 0.012411
v 0.982436 0.093500 -0.005125
v 1.060849 0.132229 -0.026861
v 1.006030 0.161947 -0.069377
v 1.021576 0.180628 -0.111713
v 1.001095 0.180628 -0.126142
v 1.022287 -0.161947 -0.249272
v 0.978364 -0.161947 -0.228943
v 1.029992 -0.180628 -0.204834
v 1.038260 -0.187000 -0.157146
v 1.054943 -0.180628 -0.202579
v 1.070490 -0.161947 -0.244916
v 1.010594 -0.093500 -0.316713
v 1.015671 -0.132229 -0.287432
v 1.100523 -0.048399 -0.326704
v 1.006314 0.000000 -0.341397
v 1.007403 0.048399 -0.335119
v 1.100523 0.048399 -0.326704
v 1.094084 0.093500 -0.309168
v 1.083840 0.132229 -0.281271
v 1.070490 0.161947 -0.244916
v 1.015671 0.132229 -0.287432
v 1.054943 0.180628 -0.202579
v 1.075424 0.180628 -0.188151
v 1.176960 0.048399 -0.272856
v 1.102720 0.000000 -0.332685
v 1.094084 -0.093500 -0.309168
v 1.083840 -0.132229 -0.281271
v 1.110056 -0.161947 -0.217042
v 1.075424 -0.180628 -0.188151
v 1.168545 -0.132229 -0.179735
v 1.162615 -0.093500 -0.260889
v 1.197826 -0.093500 -0.184812
v 1.139796 -0.132229 -0.241852
v 1.176960 -0.048399 -0.272856
v 1.216233 -0.048399 -0.188003
v 1.181853 0.000000 -0.276938
v 1.222511 0.000000 -0.189092
v 1.162615 0.093500 -0.260889
v 1.139796 0.132229 -0.241852
v 1.168545 0.132229 -0.179735
v 1.110056 0.161947 -0.217042
v 1.010594 0.093500 -0.316713
v 0.934518 0.093500 -0.281502
v 0.922550 0.048399 -0.295847
v 1.007403 -0.048399 -0.335119
v 0.934518 -0.093500 -0.281502
v 0.992680 -0.132229 -0.033022
v 0.966463 -0.161947 -0.097251
v 1.006030 -0.161947 -0.069377
v 1.001095 -0.180628 -0.126142
v 0.907975 -0.132229 -0.134557
v 0.914135 -0.132229 -0.202726
v 0.950490 -0.161947 -0.189376
v 0.946134 -0.161947 -0.141174
v 0.992827 -0.180628 -0.173830
v 0.990572 -0.180628 -0.148878
v 1.007256 -0.180628 -0.194311
v 0.953555 -0.132229 -0.258682
v 0.922550 -0.048399 -0.295847
v 0.862721 0.000000 -0.221606
v 0.918468 0.000000 -0.300740
v 0.886239 0.093500 -0.212970
v 0.953555 0.132229 -0.258682
v 0.868702 0.048399 -0.219410
v 0.854009 0.000000 -0.125201
v 0.868702 -0.048399 -0.219410
v 0.886239 -0.093500 -0.212970
v 0.878694 -0.093500 -0.129481
v 0.936724 -0.132229 -0.072441
v 0.899559 -0.048399 -0.041437
v 0.860287 -0.048399 -0.126289
v 0.860287 0.048399 -0.126289
v 0.878694 0.093500 -0.129481
v 0.907975 0.132229 -0.134557
v 0.992680 0.132229 -0.033022
v 0.913904 0.093500 -0.053404
v 0.899559 0.048399 -0.041437
v 0.894666 0.000000 -0.037355
v 0.975996 -0.048399 0.012411
v 0.913904 -0.093500 -0.053404
v 0.982436 -0.093500 -0.005125
v 0.950490 0.161947 -0.189376
v 0.978364 0.161947 -0.228943
v 1.007255 0.180628 -0.194311
v 1.029992 0.180628 -0.204834
v 1.022287 0.161947 -0.249272
v 0.966463 0.161947 -0.097251
v 0.946134 0.161947 -0.141174
v 0.936724 0.132229 -0.072441
v 0.990572 0.180628 -0.148878
v 0.992827 0.180628 -0.173830
v 0.914135 0.132229 -0.202726
vn 0.6736 0.6964 0.2474
vn 0.8584 0.4909 -0.1488
vn 0.7070 0.6964 -0.1226
vn 0.8178 0.4909 0.3003
vn 0.9531 0.2536 -0.1652
vn 0.9080 0.2536 0.3334
vn 0.9853 0.0000 -0.1708
vn 0.9387 0.0000 0.3447
vn 0.9531 -0.2536 -0.1652
vn 0.9080 -0.2536 0.3334
vn 0.8584 -0.4909 -0.1488
vn 0.6736 -0.6964 0.2474
vn 0.7071 -0.6964 -0.1226
vn 0.8178 -0.4909 0.3003
vn 0.4597 -0.6964 0.5510
vn 0.6196 -0.2536 0.7428
vn 0.6406 0.0000 0.7679
vn 0.5581 0.4909 0.6690
vn 0.4597 0.6964 0.5510
vn 0.1488 0.4909 0.8584
vn 0.6196 0.2536 0.7428
vn 0.1708 0.0000 0.9853
vn 0.1488 -0.4909 0.8584
vn 0.5581 -0.4909 0.6690
vn 0.1226 -0.6964 0.7070
vn -0.3003 -0.4909 0.8178
vn -0.3334 -0.2536 0.9080
vn 0.1652 -0.2536 0.9531
vn -0.3447 0.0000 0.9387
vn 0.1652 0.2536 0.9531
vn -0.3003 0.4909 0.8178
vn -0.2474 0.6964 0.6736
vn 0.1226 0.6964 0.7070
vn 0.3003 -0.4909 -0.8178
vn -0.1226 -0.6964 -0.7071
vn -0.1488 -0.4909 -0.8584
vn 0.3334 -0.2536 -0.9080
vn -0.1652 -0.2536 -0.9531
vn 0.3447 0.0000 -0.9387
vn -0.1708 0.0000 -0.9853
vn -0.1652 0.2536 -0.9531
vn -0.1488 0.4909 -0.8584
vn 0.3334 0.2536 -0.9080
vn 0.2474 0.6964 -0.6736
vn -0.1226 0.6964 -0.7071
vn 0.5510 0.6964 -0.4597
vn 0.3003 0.4909 -0.8178
vn 0.7428 0.2536 -0.6196
vn 0.7679 0.0000 -0.6406
vn 0.7428 -0.2536 -0.6196
vn 0.6690 -0.4909 -0.5581
vn 0.2474 -0.6964 -0.6736
vn 0.5510 -0.6964 -0.4597
vn 0.6690 0.4909 -0.5581
vn -0.4597 0.6964 -0.5510
vn -0.5581 0.4909 -0.6690
vn -0.6196 0.2536 -0.7428
vn -0.6406 0.0000 -0.7679
vn -0.6196 -0.2536 -0.7428
vn -0.5581 -0.4909 -0.6690
vn -0.4597 -0.6964 -0.5510
vn -0.6736 -0.6964 -0.2474
vn -0.8178 -0.4909 -0.3003
vn -0.9080 -0.2536 -0.3334
vn -0.9387 0.0000 -0.3447
vn -0.9080 0.2536 -0.3334
vn -0.8178 0.4909 -0.3003
vn -0.6736 0.6964 -0.2474
vn -0.8584 0.4909 0.1488
vn -0.7070 0.6964 0.1226
vn -0.9531 0.2536 0.1652
vn -0.9853 0.0000 0.1708
vn -0.9531 -0.2536 0.1652
vn -0.8584 -0.4909 0.1488
vn -0.7070 -0.6964 0.1226
vn -0.5510 -0.6964 0.4597
vn -0.6690 -0.4909 0.5581
vn -0.7428 -0.2536 0.6196
vn -0.7679 0.0000 0.6406
vn -0.7428 0.2536 0.6196
vn -0.6690 0.4909 0.5581
vn -0.5510 0.6964 0.4597
vn -0.3334 0.2536 0.9080
vn -0.2474 -0.6964 0.6736
vn 0.0000 1.0000 0.0000
vn 0.2618 0.9603 0.0961
vn 0.2748 0.9603 -0.0476
vn 0.5083 0.8566 -0.0881
vn 0.4843 0.8566 0.1778
vn 0.5083 -0.8566 -0.0881
vn 0.2618 -0.9603 0.0961
vn 0.2748 -0.9603 -0.0476
vn 0.0000 -1.0000 0.0000
vn 0.1786 -0.9603 0.2141
vn 0.4843 -0.8566 0.1778
vn 0.3305 -0.8566 0.3962
vn 0.1786 0.9603 0.2141
vn 0.0476 0.9603 0.2748
vn 0.3305 0.8566 0.3962
vn 0.0881 0.8566 0.5083
vn 0.0881 -0.8566 0.5083
vn 0.0476 -0.9603 0.2748
vn -0.0961 -0.9603 0.2618
vn -0.1778 -0.8566 0.4843
vn -0.0961 0.9603 0.2618
vn -0.2141 0.9603 0.1786
vn -0.3962 0.8566 0.3305
vn -0.1778 0.8566 0.4843
vn -0.0881 -0.8566 -0.5083
vn -0.3305 -0.8566 -0.3962
vn -0.0476 -0.9603 -0.2748
vn -0.1786 -0.9603 -0.2141
vn 0.0961 -0.9603 -0.2618
vn 0.1778 0.8566 -0.4843
vn -0.0881 0.8566 -0.5083
vn 0.0961 0.9603 -0.2618
vn -0.0476 0.9603 -0.2748
vn 0.2141 0.9603 -0.1786
vn 0.3962 0.8566 -0.3305
vn 0.3962 -0.8566 -0.3305
vn 0.1778 -0.8566 -0.4843
vn 0.2141 -0.9603 -0.1786
vn -0.3962 -0.8566 0.3305
vn -0.2141 -0.9603 0.1786
vn -0.2748 -0.9603 0.0476
vn -0.5083 -0.8566 0.0881
vn -0.4843 -0.8566 -0.1778
vn -0.2618 -0.9603 -0.0961
vn -0.3305 0.8566 -0.3962
vn -0.4843 0.8566 -0.1778
vn -0.1786 0.9603 -0.2141
vn -0.2618 0.9603 -0.0961
vn -0.5083 0.8566 0.0881
vn -0.2748 0.9603 0.0476
s 1
f 23//1 6//2 82//3
f 21//4 8//5 6//2
f 7//6 79//7 8//5
f 19//8 77//9 79//7
f 17//10 74//11 77//9
f 74//11 16//12 72//13
f 14//14 13//15 16//12
f 18//16 14//14 17//10
f 19//8 18//16 17//10
f 7//6 30//17 19//8
f 22//18 7//6 21//4
f 23//1 22//18 21//4
f 28//19 29//20 22//18
f 29//20 20//21 22//18
f 20//21 39//22 30//17
f 39//22 18//16 30//17
f 18//16 31//23 15//24
f 15//24 37//25 13//15
f 123//26 37//25 31//23
f 121//27 31//23 38//28
f 40//29 38//28 39//22
f 41//30 40//29 39//22
f 43//31 41//30 29//20
f 117//32 29//20 44//33
f 68//34 55//35 54//36
f 56//37 54//36 87//38
f 67//39 87//38 57//40
f 58//41 67//39 57//40
f 84//42 59//43 58//41
f 61//44 84//42 63//45
f 81//46 60//47 61//44
f 60//47 66//48 59//43
f 59//43 78//49 67//39
f 67//39 76//50 56//37
f 76//50 68//34 56//37
f 73//51 69//52 68//34
f 74//11 75//53 73//51
f 76//50 74//11 73//51
f 79//7 76//50 78//49
f 66//48 79//7 78//49
f 6//2 66//48 80//54
f 81//46 6//2 80//54
f 105//55 84//42 85//56
f 85//56 58//41 86//57
f 86//57 57//40 103//58
f 103//58 87//38 101//59
f 87//38 88//60 101//59
f 54//36 100//61 88//60
f 88//60 94//62 109//63
f 101//59 109//63 108//64
f 103//58 108//64 102//65
f 86//57 102//65 106//66
f 85//56 106//66 104//67
f 134//68 85//56 104//67
f 134//68 115//69 116//70
f 115//69 106//66 114//71
f 114//71 102//65 107//72
f 102//65 113//73 107//72
f 108//64 110//74 113//73
f 109//63 93//75 110//74
f 110//74 111//76 122//77
f 113//73 122//77 112//78
f 120//79 113//73 112//78
f 119//80 107//72 120//79
f 115//69 119//80 118//81
f 116//70 118//81 131//82
f 117//32 118//81 43//31
f 118//81 42//83 43//31
f 119//80 40//29 42//83
f 40//29 112//78 121//27
f 112//78 123//26 121//27
f 123//26 111//76 89//84
f 23//1 21//4 6//2
f 21//4 7//6 8//5
f 7//6 19//8 79//7
f 19//8 17//10 77//9
f 17//10 14//14 74//11
f 74//11 14//14 16//12
f 14//14 15//24 13//15
f 18//16 15//24 14//14
f 19//8 30//17 18//16
f 7//6 20//21 30//17
f 22//18 20//21 7//6
f 23//1 28//19 22//18
f 28//19 44//33 29//20
f 29//20 41//30 20//21
f 20//21 41//30 39//22
f 39//22 38//28 18//16
f 18//16 38//28 31//23
f 15//24 31//23 37//25
f 123//26 89//84 37//25
f 121//27 123//26 31//23
f 40//29 121//27 38//28
f 41//30 42//83 40//29
f 43//31 42//83 41//30
f 117//32 43//31 29//20
f 68//34 69//52 55//35
f 56//37 68//34 54//36
f 67//39 56//37 87//38
f 58//41 59//43 67//39
f 84//42 60//47 59//43
f 61//44 60//47 84//42
f 81//46 80//54 60//47
f 60//47 80//54 66//48
f 59//43 66//48 78//49
f 67//39 78//49 76//50
f 76//50 73//51 68//34
f 73//51 75//53 69//52
f 74//11 72//13 75//53
f 76//50 77//9 74//11
f 79//7 77//9 76//50
f 66//48 8//5 79//7
f 6//2 8//5 66//48
f 81//46 82//3 6//2
f 105//55 63//45 84//42
f 85//56 84//42 58//41
f 86//57 58//41 57//40
f 103//58 57//40 87//38
f 87//38 54//36 88//60
f 54//36 55//35 100//61
f 88//60 100//61 94//62
f 101//59 88//60 109//63
f 103//58 101//59 108//64
f 86//57 103//58 102//65
f 85//56 86//57 106//66
f 134//68 105//55 85//56
f 134//68 104//67 115//69
f 115//69 104//67 106//66
f 114//71 106//66 102//65
f 102//65 108//64 113//73
f 108//64 109//63 110//74
f 109//63 94//62 93//75
f 110//74 93//75 111//76
f 113//73 110//74 122//77
f 120//79 107//72 113//73
f 119//80 114//71 107//72
f 115//69 114//71 119//80
f 116//70 115//69 118//81
f 117//32 131//82 118//81
f 118//81 119//80 42//83
f 119//80 120//79 40//29
f 40//29 120//79 112//78
f 112//78 122//77 123//26
f 123//26 122//77 111//76
f 1//85 2//86 3//87
f 2//86 5//88 3//87
f 4//89 82//3 5//88
f 16//12 10//90 72//13
f 10//90 11//91 12//92
f 12//92 11//91 51//93
f 11//91 35//94 51//93
f 9//95 35//94 11//91
f 16//12 33//96 9//95
f 4//89 28//19 23//1
f 25//97 4//89 2//86
f 1//85 25//97 2//86
f 1//85 26//98 25//97
f 26//98 24//99 25//97
f 27//100 28//19 24//99
f 13//15 32//101 33//96
f 32//101 35//94 33//96
f 35//94 34//102 51//93
f 34//102 36//103 51//93
f 32//101 36//103 34//102
f 37//25 91//104 32//101
f 27//100 117//32 44//33
f 46//105 27//100 26//98
f 1//85 46//105 26//98
f 1//85 47//106 46//105
f 46//105 129//107 45//108
f 45//108 131//82 117//32
f 100//61 48//109 49//110
f 49//110 50//111 99//112
f 99//112 50//111 51//93
f 50//111 52//113 51//93
f 48//109 52//113 50//111
f 69//52 48//109 55//35
f 62//114 63//45 128//115
f 64//116 128//115 127//117
f 1//85 64//116 127//117
f 1//85 65//118 64//116
f 64//116 83//119 62//114
f 62//114 81//46 61//44
f 69//52 70//120 53//121
f 70//120 52//113 53//121
f 52//113 71//122 51//93
f 51//93 71//122 12//92
f 12//92 70//120 10//90
f 72//13 70//120 75//53
f 83//119 82//3 81//46
f 65//118 5//88 83//119
f 1//85 3//87 65//118
f 111//76 91//104 89//84
f 90//123 36//103 91//104
f 36//103 92//124 51//93
f 92//124 98//125 51//93
f 90//123 98//125 92//124
f 111//76 96//126 90//123
f 93//75 95//127 96//126
f 95//127 98//125 96//126
f 98//125 97//128 51//93
f 97//128 99//112 51//93
f 49//110 97//128 95//127
f 94//62 49//110 95//127
f 125//129 134//68 124//130
f 126//131 124//130 133//132
f 1//85 126//131 133//132
f 1//85 127//117 126//131
f 126//131 128//115 125//129
f 128//115 105//55 125//129
f 130//133 131//82 129//107
f 132//134 129//107 47//106
f 1//85 132//134 47//106
f 1//85 133//132 132//134
f 133//132 130//133 132//134
f 124//130 116//70 130//133
f 2//86 4//89 5//88
f 4//89 23//1 82//3
f 16//12 9//95 10//90
f 10//90 9//95 11//91
f 9//95 33//96 35//94
f 16//12 13//15 33//96
f 4//89 24//99 28//19
f 25//97 24//99 4//89
f 26//98 27//100 24//99
f 27//100 44//33 28//19
f 13//15 37//25 32//101
f 32//101 34//102 35//94
f 32//101 91//104 36//103
f 37//25 89//84 91//104
f 27//100 45//108 117//32
f 46//105 45//108 27//100
f 46//105 47//106 129//107
f 45//108 129//107 131//82
f 100//61 55//35 48//109
f 49//110 48//109 50//111
f 48//109 53//121 52//113
f 69//52 53//121 48//109
f 62//114 61//44 63//45
f 64//116 62//114 128//115
f 64//116 65//118 83//119
f 62//114 83//119 81//46
f 69//52 75//53 70//120
f 70//120 71//122 52//113
f 12//92 71//122 70//120
f 72//13 10//90 70//120
f 83//119 5//88 82//3
f 65//118 3//87 5//88
f 111//76 90//123 91//104
f 90//123 92//124 36//103
f 90//123 96//126 98//125
f 111//76 93//75 96//126
f 93//75 94//62 95//127
f 95//127 97//128 98//125
f 49//110 99//112 97//128
f 94//62 100//61 49//110
f 125//129 105//55 134//68
f 126//131 125//129 124//130
f 126//131 127//117 128//115
f 128//115 63//45 105//55
f 130//133 116//70 131//82
f 132//134 130//133 129//107
f 133//132 124//130 130//133
f 124//130 134//68 116//70
