# Blender v2.76 (sub 0) OBJ File: ''
# www.blender.org
o palm02.png
v -0.447600 5.429435 -0.037734
v -0.457549 5.421292 -0.085368
v -0.482076 5.421705 -0.003253
v -0.526502 5.405834 -0.016406
v -0.536451 5.397691 -0.064039
v -0.501975 5.405420 -0.098520
v -0.081624 0.000000 -0.229153
v 0.012191 0.862855 -0.142149
v 0.181529 0.000000 -0.229153
v 0.177664 0.855412 -0.142162
v 0.202908 1.622905 -0.118525
v 0.061595 1.627076 -0.118522
v 0.186073 2.462585 -0.108619
v 0.062729 2.450170 -0.108610
v 0.082219 3.361238 -0.110942
v -0.022333 3.341818 -0.110876
v -0.416040 5.279356 -0.098644
v -0.114422 4.303234 -0.115892
v -0.470314 5.260741 -0.098523
v -0.201474 4.286883 -0.115762
v -0.213200 0.000000 -0.001256
v -0.070556 0.866365 0.001486
v -0.009071 1.628980 0.003980
v 0.001033 2.444261 -0.001247
v -0.074743 3.332894 -0.018632
v -0.245101 4.279427 -0.038626
v -0.497457 5.251664 -0.048261
v -0.081624 -0.000000 0.226640
v 0.012170 0.862433 0.145110
v 0.061577 1.626713 0.126478
v 0.062681 2.450768 0.106108
v -0.022603 3.343390 0.073547
v -0.201677 4.288321 0.038380
v -0.470326 5.261201 0.001881
v 0.181529 -0.000000 0.226640
v 0.177643 0.854990 0.145097
v 0.202890 1.622542 0.126475
v 0.186025 2.463184 0.106099
v 0.081949 3.362809 0.073481
v -0.114626 4.304672 0.038251
v -0.416052 5.279816 0.001760
v 0.313105 0.000000 -0.001256
v 0.260390 0.851480 0.001462
v 0.273555 1.620637 0.003973
v 0.247721 2.469092 -0.001265
v 0.134360 3.371734 -0.018764
v -0.070998 4.312128 -0.038885
v -0.388909 5.288894 -0.048502
v -0.480767 5.291219 -0.098664
v -0.426493 5.309834 -0.098784
v -0.491221 5.321696 -0.098805
v -0.436947 5.340312 -0.098925
v -0.495170 5.365940 -0.101217
v -0.442401 5.383596 -0.089774
v -0.507910 5.282141 -0.048402
v -0.518364 5.312619 -0.048543
v -0.532502 5.358302 -0.058469
v -0.480780 5.291678 0.001740
v -0.491233 5.322156 0.001599
v -0.517065 5.368319 -0.004278
v -0.426505 5.310293 0.001620
v -0.436959 5.340770 0.001479
v -0.464296 5.385975 0.007165
v -0.399362 5.319371 -0.048643
v -0.409816 5.349849 -0.048783
v -0.426964 5.393614 -0.035583
v -0.365089 5.319149 -0.275840
v -0.521034 5.261333 -0.278714
v -0.664690 5.213117 -0.066137
v -0.595113 5.241395 0.114262
v -0.234947 5.358162 -0.015801
v -0.333427 5.329578 0.153709
v -0.239545 5.357675 -0.638662
v -0.609205 5.255106 -0.553861
v -0.917059 5.048970 0.005664
v -0.798659 5.139195 0.343784
v 0.189633 5.383671 0.102009
v -0.019954 5.337482 0.478268
v -0.497620 5.089530 -0.965444
v -0.212973 5.241995 -0.989335
v -0.997005 4.867211 0.445569
v -1.105624 4.814110 0.121239
v 0.456494 5.278792 0.306428
v 0.291805 5.234870 0.569566
v -0.259041 4.844049 -1.213175
v -1.085458 4.350914 0.425569
v 0.601700 4.964993 0.506089
v -1.057482 5.091754 -0.143098
v -0.888460 5.148282 -0.456084
v -0.634626 5.320255 0.377783
v -0.311532 5.433342 0.381672
v -0.005062 5.499722 -0.176030
v -0.221293 5.440331 -0.457596
v -1.296531 4.809127 -0.283635
v -1.111870 4.921827 -0.643715
v -0.629873 5.214955 0.790540
v -0.249224 5.345509 0.789696
v 0.330692 5.531103 -0.452864
v 0.050144 5.454047 -0.727965
v -1.337847 4.382720 -0.607475
v -0.300913 4.924546 1.068735
v 0.458272 5.303499 -0.861283
v -0.456308 5.466483 -0.353318
v -0.665242 5.395289 -0.311295
v -0.772205 5.359941 0.038469
v -0.633493 5.408592 0.210607
v -0.292588 5.524879 0.132120
v -0.222623 5.548167 -0.082045
v -0.511249 5.515882 -0.704216
v -0.765177 5.429357 -0.653143
v -1.176165 5.269532 0.207329
v -0.844172 5.407777 0.517377
v 0.075481 5.720786 0.014660
v -0.009551 5.692482 0.274945
v -0.604923 5.406143 -1.023819
v -0.762259 5.352531 -0.992174
v 0.334878 5.734722 0.325939
v 0.387565 5.752259 0.164664
v -0.716297 5.324504 -1.191420
v -1.230212 5.067720 0.645936
v 0.547939 5.764992 0.294266
v -0.548794 5.617343 -0.310613
v -0.375604 5.681852 -0.229260
v -0.823327 5.469378 -0.201851
v -0.643840 5.503932 -0.392088
v -0.767941 5.600084 0.054403
v -0.779136 5.570179 -0.137956
v -0.736747 5.498550 0.207068
v -0.475786 5.587556 0.280827
v -0.564757 5.709184 0.152615
v -0.390523 5.745118 0.023889
v -0.269250 5.636070 -0.278040
v -0.243948 5.655839 -0.016365
v -0.857825 5.514107 -0.724146
v -1.118832 5.509673 -0.404711
v -0.534540 5.675180 0.768400
v -0.949396 5.533684 0.651143
v 0.105643 5.864699 0.012726
v -0.030983 5.812869 -0.400092
v -1.315657 5.414100 -0.694704
v -1.094819 5.408006 -0.913041
v 0.331085 5.812069 -0.480817
v 0.396249 5.845990 -0.108217
v -1.381557 5.211203 -0.991727
v -0.838814 5.411031 1.154691
v 0.667551 5.687633 -0.321818
v -0.140707 5.867939 -0.608852
v -0.496170 5.747300 -0.760994
v -1.121337 5.699388 0.141004
v -1.142273 5.643461 -0.218731
v -0.185724 6.015296 0.193468
v -0.534117 5.948097 0.438712
v -0.170237 5.695057 -0.982452
v -1.561571 5.566549 0.061840
v -0.137719 5.998028 0.742736
vt 0.852139 0.253146
vt 0.774493 0.255070
vt 0.939413 0.491371
vt 0.724782 0.076376
vt 0.717138 0.112975
vt 0.698293 0.049883
vt 0.664159 0.059989
vt 0.656515 0.096588
vt 0.683004 0.123081
vt 0.600978 0.007642
vt 0.600978 0.127772
vt 0.506738 0.007642
vt 0.506738 0.127772
vt 0.506738 0.266632
vt 0.600978 0.266632
vt 0.506738 0.415836
vt 0.600978 0.415836
vt 0.506738 0.574034
vt 0.601645 0.574034
vt 0.505887 0.934593
vt 0.506738 0.754267
vt 0.601163 0.934715
vt 0.600978 0.754267
vt 0.102254 0.007642
vt 0.102254 0.127772
vt 0.006225 0.007642
vt 0.006225 0.127772
vt 0.006225 0.266632
vt 0.102254 0.266632
vt 0.006225 0.415836
vt 0.102254 0.415836
vt 0.005751 0.574034
vt 0.102254 0.574034
vt 0.102254 0.754267
vt 0.006225 0.754267
vt 0.006225 0.934627
vt 0.102254 0.934627
vt 0.202569 0.007642
vt 0.202569 0.127772
vt 0.202569 0.266632
vt 0.202569 0.415836
vt 0.202569 0.574034
vt 0.202569 0.754267
vt 0.202569 0.934627
vt 0.295303 0.007642
vt 0.295303 0.127772
vt 0.295303 0.266632
vt 0.295303 0.415836
vt 0.295303 0.574034
vt 0.295303 0.754267
vt 0.295303 0.934627
vt 0.404247 0.007642
vt 0.404247 0.127772
vt 0.404247 0.266632
vt 0.404247 0.415836
vt 0.404247 0.574034
vt 0.404247 0.754267
vt 0.404247 0.934627
vt 0.601379 0.934529
vt 0.600978 0.978262
vt 0.506738 0.978262
vt 0.600978 0.983742
vt 0.506738 0.983742
vt 0.600978 0.988283
vt 0.506738 0.988283
vt 0.600978 0.993717
vt 0.506738 0.993717
vt 0.102254 0.978262
vt 0.006225 0.978262
vt 0.102254 0.983742
vt 0.006225 0.983742
vt 0.102254 0.988283
vt 0.006225 0.988283
vt 0.102254 0.993717
vt 0.006225 0.993717
vt 0.202569 0.978262
vt 0.202569 0.983742
vt 0.202569 0.988283
vt 0.202569 0.993717
vt 0.295303 0.978262
vt 0.295303 0.983742
vt 0.295303 0.988283
vt 0.295303 0.993717
vt 0.404247 0.978262
vt 0.404247 0.983742
vt 0.404247 0.988283
vt 0.404247 0.993717
vt 0.733757 0.254687
vt 0.895579 0.253499
vt 0.794432 0.101454
vt 0.831304 0.102144
vt 0.733065 0.253461
vt 0.894342 0.254391
vt 0.796165 0.100659
vt 0.830857 0.102015
vt 0.688065 0.499165
vt 0.938584 0.492976
vt 0.687406 0.498352
vt 0.919865 0.702881
vt 0.720789 0.704428
vt 0.916921 0.702744
vt 0.722047 0.705428
vt 0.811210 0.919954
vt 0.811938 0.921919
vt 0.853203 0.254660
vt 0.775997 0.254711
vt 0.601166 0.754568
vt 0.506738 0.754556
vt 0.506830 0.573722
vn -0.326500 0.945200 -0.005600
vn 0.573600 0.756400 0.314400
vn 0.130700 0.921500 -0.365700
vn -0.179200 0.745800 0.641700
vn -0.787400 0.516600 0.336200
vn -0.822300 0.432300 -0.370000
vn -0.201600 0.383900 -0.901100
vn -0.646100 0.145700 -0.749200
vn -0.323700 0.090200 -0.941900
vn 0.500400 0.089700 -0.861200
vn 0.597500 0.036700 -0.801000
vn 0.398000 0.019200 -0.917200
vn -0.569100 0.034900 -0.821500
vn 0.426300 0.026900 -0.904200
vn -0.499800 -0.019300 -0.865900
vn 0.494900 0.069000 -0.866200
vn -0.563800 -0.083000 -0.821700
vn 0.473500 0.161600 -0.865800
vn 0.549600 0.148800 -0.822100
vn -0.322600 -0.072400 -0.943800
vn -0.488600 -0.116400 -0.864700
vn -0.986700 0.162500 0.000100
vn -0.992600 0.121800 0.000100
vn -0.992700 0.040000 0.114100
vn -0.995600 -0.043800 -0.082500
vn -0.991400 -0.131100 -0.000300
vn -0.979400 -0.202000 0.000700
vn -0.967900 -0.251400 0.001200
vn -0.646500 0.141000 0.749800
vn -0.323800 0.084200 0.942400
vn -0.499200 0.042900 0.865400
vn -0.502000 0.011500 0.864800
vn -0.652400 -0.064900 0.755100
vn -0.492300 -0.089100 0.865900
vn -0.324200 -0.054200 0.944400
vn 0.328200 0.090900 0.940200
vn 0.655500 0.035900 0.754300
vn 0.398000 0.019700 0.917200
vn 0.497800 0.050300 0.865900
vn 0.417800 0.094400 0.903600
vn 0.480600 0.148400 0.864300
vn 0.621000 0.220100 0.752300
vn 0.980300 0.059900 0.187900
vn 0.993000 0.030300 -0.114400
vn 1.000000 0.006700 0.000100
vn 0.995600 0.093200 0.000100
vn 0.982900 0.183900 -0.000400
vn 0.956100 0.270700 0.112200
vn 0.934400 0.302300 -0.188200
vn -0.621700 -0.216700 -0.752700
vn -0.475000 -0.166900 -0.864000
vn 0.310400 0.102100 -0.945100
vn 0.474500 0.158800 -0.865800
vn -0.444400 -0.152200 -0.882800
vn 0.501100 0.177400 -0.847000
vn -0.345200 -0.014100 -0.938400
vn 0.580800 0.290300 -0.760500
vn -0.945900 -0.324400 0.001500
vn -0.942800 -0.323000 0.082900
vn -0.939800 -0.339800 -0.035000
vn -0.961600 -0.198100 -0.189700
vn -0.621400 -0.209600 0.755000
vn -0.310400 -0.102100 0.945100
vn -0.494100 -0.195000 0.847300
vn -0.659200 -0.071000 0.748600
vn 0.311100 0.111100 0.943800
vn 0.621600 0.216700 0.752700
vn 0.454400 0.134000 0.880700
vn 0.277800 0.241700 0.929700
vn 0.945900 0.324400 -0.001500
vn 0.939800 0.321800 -0.115100
vn 0.948000 0.316600 0.032000
vn 0.893300 0.416900 0.168200
vn -0.320500 0.944700 0.070300
vn -0.339300 0.935600 0.097900
vn -0.335100 0.936700 0.101600
vn -0.322800 0.941800 0.094000
vn -0.403300 0.914700 -0.025400
vn -0.288800 0.956600 -0.038200
vn -0.216600 0.973800 -0.068600
vn -0.216100 0.974000 -0.068300
vn -0.400700 0.914800 -0.051100
vn -0.401500 0.913500 -0.065700
vn -0.255700 0.966700 0.010300
vn -0.266600 0.963800 0.007600
vn -0.363500 0.898100 -0.247700
vn -0.323900 0.939400 -0.112200
vn -0.699100 0.711100 0.074200
vn -0.599300 0.799700 0.035500
vn 0.060100 0.986200 0.154500
vn 0.054800 0.982800 0.176300
vn -0.392200 0.748600 -0.534600
vn -0.420400 0.693100 -0.585500
vn -0.850700 0.491300 0.186800
vn -0.877700 0.423200 0.224700
vn 0.363100 0.862700 0.351900
vn 0.441000 0.798700 0.409300
vn -0.330900 0.491400 -0.805600
vn -0.944600 0.150500 0.291700
vn 0.626600 0.603600 0.492900
vn -0.479200 0.871900 -0.101300
vn -0.318200 0.926500 -0.200600
vn -0.327400 0.944600 0.020800
vn -0.319600 0.925900 -0.201300
vn -0.330500 0.943500 0.022400
vn -0.403600 0.913900 0.044500
vn -0.281700 0.959400 -0.010500
vn -0.397900 0.914200 0.076400
vn -0.272300 0.962200 0.006200
vn -0.813100 0.524300 -0.252900
vn -0.715500 0.681500 -0.153600
vn -0.813100 0.524200 -0.252900
vn -0.613700 0.765500 -0.193200
vn -0.268500 0.786300 0.556500
vn -0.291200 0.841700 0.454600
vn 0.005600 0.961400 -0.275000
vn -0.046100 0.975400 -0.215400
vn -0.874900 0.343800 -0.341100
vn -0.189800 0.558500 0.807500
vn 0.183500 0.881900 -0.434200
vn -0.290000 0.848400 0.442800
vn -0.268400 0.909000 0.318800
vn -0.245700 0.856700 0.453600
vn -0.246000 0.913400 0.324200
vn 0.098800 0.966400 -0.237300
vn -0.069900 0.974900 -0.211200
vn 0.090900 0.954200 -0.285100
vn -0.052500 0.971300 -0.232200
vn -0.674900 0.698400 -0.238300
vn -0.638100 0.753600 -0.158200
vn -0.703700 0.680900 -0.202800
vn -0.574100 0.812800 -0.099200
vn -0.325500 0.945400 -0.016500
vn -0.442400 0.893700 0.075200
vn -0.359300 0.933200 0.006700
vn -0.253200 0.967100 0.022400
vn -0.373200 0.927500 -0.021100
vn -0.352900 0.911900 -0.209700
vn -0.130900 0.989300 0.064800
vn -0.580200 0.764700 0.280300
vn -0.416200 0.595600 0.687000
vn -0.466000 0.565200 0.680700
vn -0.469700 0.696800 0.542100
vn -0.462000 0.804200 0.374000
vn 0.189900 0.924300 0.331000
vn 0.187600 0.922800 0.336600
vn 0.128300 0.949000 0.288000
vn 0.068800 0.980200 0.185800
vn 0.560700 0.788800 -0.251900
vn 0.582900 0.786400 -0.204600
vn 0.414400 0.890600 -0.187300
vn 0.425800 0.890000 -0.163100
vn -0.127800 0.779500 -0.613200
vn -0.169800 0.860500 -0.480300
vn -0.116400 0.789200 -0.603100
vn -0.216300 0.915400 -0.339400
vn -0.715700 0.162400 -0.679200
vn -0.636500 0.380100 -0.671100
vn -0.664000 0.210200 -0.717600
vn -0.557700 0.562200 -0.610700
vn -0.780300 0.616000 0.108400
vn -0.801400 0.593700 0.072400
vn -0.740700 0.670100 0.047800
vn -0.655200 0.754700 0.032800
vn -0.145600 0.980300 -0.133200
vn -0.068500 0.997500 0.014000
vn -0.334900 0.940900 0.049500
vn -0.313400 0.948900 -0.036300
vn -0.178100 0.982700 -0.051200
vn -0.394100 0.918900 -0.019500
vn -0.291600 0.910800 -0.292300
vn -0.325000 0.877300 -0.353200
vn 0.138200 0.982600 -0.124000
vn 0.219400 0.967400 -0.126400
vn -0.419800 0.790100 -0.446600
vn -0.382400 0.874900 0.297100
vn 0.405600 0.901200 -0.153000
vn -0.276700 0.954600 -0.110400
vn -0.332700 0.943000 -0.001300
vn -0.017800 0.988100 -0.152600
vn 0.067000 0.985300 -0.157100
vn -0.350800 0.902200 -0.251100
vn -0.416900 0.839500 -0.348600
vn -0.132200 0.903500 -0.407700
vn -0.264300 0.955200 -0.133100
vn -0.158700 0.986300 0.044900
s off
f 55/1/1 49/2/1 88/3/1
s 1
f 1/4/2 2/5/3 3/6/4
f 3/6/4 2/5/3 4/7/5
f 4/7/5 2/5/3 5/8/6
f 2/5/3 6/9/7 5/8/6
f 7/10/8 8/11/9 9/12/10
f 9/12/10 8/11/9 10/13/11
f 10/13/11 8/11/9 11/14/12
f 8/11/9 12/15/13 11/14/12
f 11/14/12 12/15/13 13/16/14
f 12/15/13 14/17/15 13/16/14
f 15/18/16 13/16/14 16/19/17
f 13/16/14 14/17/15 16/19/17
f 17/20/18 18/21/19 19/22/20
f 18/21/19 20/23/21 19/22/20
f 21/24/22 22/25/23 7/26/8
f 7/26/8 22/25/23 8/27/9
f 8/27/9 22/25/23 12/28/13
f 22/25/23 23/29/24 12/28/13
f 14/30/15 12/28/13 24/31/25
f 12/28/13 23/29/24 24/31/25
f 14/30/15 24/31/25 16/32/17
f 24/31/25 25/33/26 16/32/17
f 25/33/26 26/34/27 16/32/17
f 16/32/17 26/34/27 20/35/21
f 19/36/20 20/35/21 27/37/28
f 20/35/21 26/34/27 27/37/28
f 21/24/22 28/38/29 22/25/23
f 28/38/29 29/39/30 22/25/23
f 29/39/30 30/40/31 22/25/23
f 22/25/23 30/40/31 23/29/24
f 30/40/31 31/41/32 23/29/24
f 23/29/24 31/41/32 24/31/25
f 31/41/32 32/42/33 24/31/25
f 24/31/25 32/42/33 25/33/26
f 25/33/26 32/42/33 26/34/27
f 32/42/33 33/43/34 26/34/27
f 34/44/35 27/37/28 33/43/34
f 26/34/27 33/43/34 27/37/28
f 28/38/29 35/45/36 29/39/30
f 35/45/36 36/46/37 29/39/30
f 36/46/37 37/47/38 29/39/30
f 29/39/30 37/47/38 30/40/31
f 37/47/38 38/48/39 30/40/31
f 30/40/31 38/48/39 31/41/32
f 38/48/39 39/49/40 31/41/32
f 31/41/32 39/49/40 32/42/33
f 32/42/33 39/49/40 33/43/34
f 39/49/40 40/50/41 33/43/34
f 41/51/42 34/44/35 40/50/41
f 33/43/34 40/50/41 34/44/35
f 35/45/36 42/52/43 36/46/37
f 42/52/43 43/53/44 36/46/37
f 43/53/44 44/54/45 36/46/37
f 36/46/37 44/54/45 37/47/38
f 45/55/46 38/48/39 44/54/45
f 37/47/38 44/54/45 38/48/39
f 46/56/47 39/49/40 45/55/46
f 38/48/39 45/55/46 39/49/40
f 39/49/40 46/56/47 40/50/41
f 46/56/47 47/57/48 40/50/41
f 48/58/49 41/51/42 47/57/48
f 40/50/41 47/57/48 41/51/42
f 10/13/11 43/53/44 9/12/10
f 42/52/43 9/12/10 43/53/44
f 43/53/44 10/13/11 44/54/45
f 10/13/11 11/14/12 44/54/45
f 45/55/46 44/54/45 13/16/14
f 44/54/45 11/14/12 13/16/14
f 46/56/47 45/55/46 15/18/16
f 45/55/46 13/16/14 15/18/16
f 15/18/16 18/21/19 46/56/47
f 46/56/47 18/21/19 47/57/48
f 47/57/48 18/21/19 48/58/49
f 18/21/19 17/20/18 48/58/49
f 19/59/50 49/60/51 17/20/52
f 17/20/52 49/60/51 50/61/53
f 49/60/51 51/62/54 50/61/53
f 50/61/53 51/62/54 52/63/55
f 51/64/54 53/65/56 52/62/55
f 52/62/55 53/65/56 54/63/57
f 53/64/56 6/66/7 54/65/57
f 54/65/57 6/66/7 2/67/3
f 27/37/58 55/68/59 19/36/50
f 19/36/50 55/68/59 49/69/51
f 55/68/59 56/70/60 49/69/51
f 49/69/51 56/70/60 51/71/54
f 56/70/60 57/72/61 51/71/54
f 51/71/54 57/72/61 53/73/56
f 57/72/61 5/74/6 53/73/56
f 53/73/56 5/74/6 6/75/7
f 27/37/58 34/44/62 55/68/59
f 34/44/62 58/76/63 55/68/59
f 58/76/63 59/77/64 55/68/59
f 55/68/59 59/77/64 56/70/60
f 59/77/64 60/78/65 56/70/60
f 56/70/60 60/78/65 57/72/61
f 60/78/65 4/79/5 57/72/61
f 57/72/61 4/79/5 5/74/6
f 34/44/62 41/51/66 58/76/63
f 41/51/66 61/80/67 58/76/63
f 61/80/67 62/81/68 58/76/63
f 58/76/63 62/81/68 59/77/64
f 62/81/68 63/82/69 59/77/64
f 59/77/64 63/82/69 60/78/65
f 63/82/69 3/83/4 60/78/65
f 60/78/65 3/83/4 4/79/5
f 41/51/66 48/58/70 61/80/67
f 48/58/70 64/84/71 61/80/67
f 64/84/71 65/85/72 61/80/67
f 61/80/67 65/85/72 62/81/68
f 63/82/69 62/81/68 66/86/73
f 62/81/68 65/85/72 66/86/73
f 66/86/73 1/87/2 63/82/69
f 63/82/69 1/87/2 3/83/4
f 17/20/52 50/61/53 48/58/70
f 48/58/70 50/61/53 64/84/71
f 50/61/53 52/63/55 64/84/71
f 64/84/71 52/63/55 65/85/72
f 66/86/73 65/85/72 54/65/57
f 65/85/72 52/63/55 54/65/57
f 54/65/57 2/67/3 66/86/73
f 66/86/73 2/67/3 1/87/2
f 67/88/74 68/89/75 17/90/76
f 17/90/76 68/89/75 19/91/77
f 69/92/78 70/93/79 27/94/80
f 27/94/80 70/93/79 34/95/81
f 48/91/82 41/90/83 71/89/84
f 41/90/83 72/88/85 71/89/84
f 73/96/86 74/97/87 67/88/74
f 67/88/74 74/97/87 68/89/75
f 75/98/88 76/3/89 69/92/78
f 69/92/78 76/3/89 70/93/79
f 77/97/90 71/89/84 78/96/91
f 72/88/85 78/96/91 71/89/84
f 74/97/87 73/96/86 79/99/92
f 73/96/86 80/100/93 79/99/92
f 76/3/89 75/98/88 81/101/94
f 75/98/88 82/102/95 81/101/94
f 77/97/90 78/96/91 83/99/96
f 78/96/91 84/100/97 83/99/96
f 80/100/93 85/103/98 79/99/92
f 82/102/95 86/104/99 81/101/94
f 84/100/97 87/103/100 83/99/96
f 49/2/1 89/98/101 88/3/101
f 58/2/102 90/98/103 61/1/104
f 61/1/104 90/98/103 91/3/105
f 64/2/106 92/98/107 50/1/108
f 50/1/108 92/98/107 93/3/109
f 94/101/110 88/3/111 95/102/112
f 89/98/101 95/102/113 88/3/101
f 96/102/114 97/101/115 90/98/103
f 90/98/103 97/101/115 91/3/105
f 98/102/116 99/101/117 92/98/107
f 92/98/107 99/101/117 93/3/109
f 94/101/110 95/102/112 100/104/118
f 97/101/115 96/102/114 101/104/119
f 99/101/117 98/102/116 102/104/120
f 52/90/121 103/88/122 51/91/123
f 51/91/123 103/88/122 104/89/124
f 56/2/125 105/98/126 59/1/127
f 59/1/127 105/98/126 106/3/128
f 62/94/129 107/92/130 65/95/131
f 65/95/131 107/92/130 108/93/132
f 109/96/133 110/97/133 103/88/122
f 103/88/122 110/97/133 104/89/124
f 111/102/134 112/101/135 105/98/126
f 105/98/126 112/101/135 106/3/128
f 113/3/136 108/93/132 114/98/137
f 107/92/130 114/98/137 108/93/132
f 109/96/133 115/100/138 110/97/133
f 110/97/133 115/100/138 116/99/138
f 114/98/137 117/102/139 113/3/136
f 113/3/136 117/102/139 118/101/139
f 115/100/138 119/103/138 116/99/138
f 112/101/135 111/102/134 120/104/140
f 117/102/139 121/104/139 118/101/139
f 6/1/141 2/2/142 122/3/143
f 2/2/142 123/98/144 122/3/143
f 57/91/145 53/90/146 124/89/147
f 53/90/146 125/88/148 124/89/147
f 4/105/149 5/106/150 126/97/151
f 5/106/150 127/96/152 126/97/151
f 60/106/153 128/96/154 63/105/155
f 63/105/155 128/96/154 129/97/156
f 3/2/157 130/98/158 1/1/159
f 1/1/159 130/98/158 131/3/160
f 54/95/161 66/94/162 132/93/163
f 66/94/162 133/92/164 132/93/163
f 134/96/165 135/97/166 125/88/148
f 125/88/148 135/97/166 124/89/147
f 136/99/167 129/97/156 137/100/168
f 128/96/154 137/100/168 129/97/156
f 138/98/169 139/3/170 133/92/164
f 133/92/164 139/3/170 132/93/163
f 135/97/166 134/96/165 140/99/171
f 134/96/165 141/100/172 140/99/171
f 139/3/170 138/98/169 142/101/173
f 138/98/169 143/102/174 142/101/173
f 141/100/172 144/103/175 140/99/171
f 136/99/167 137/100/168 145/103/176
f 143/102/174 146/104/177 142/101/173
f 147/102/178 148/101/179 123/98/144
f 123/98/144 148/101/179 122/3/143
f 149/99/180 126/97/151 150/100/181
f 127/96/152 150/100/181 126/97/151
f 151/101/182 131/3/160 152/102/183
f 130/98/158 152/102/183 131/3/160
f 147/102/178 153/104/184 148/101/179
f 150/100/181 154/103/185 149/99/180
f 152/102/183 155/104/186 151/101/182
f 18/107/19 15/19/16 20/108/21
f 15/19/16 16/109/17 20/108/21
