ply
format ascii 1.0
comment Created by Blender 2.79 (sub 0) - www.blender.org, source file: ''
element vertex 9
property float x
property float y
property float z
property float nx
property float ny
property float nz
property float s
property float t
element face 8
property list uchar uint vertex_indices
end_header
-1.000000 -1.000000 -0.000000 0.000000 0.000000 1.000000 1.000000 1.000000
0.000000 -1.000000 -0.000000 0.000000 0.000000 1.000000 0.000000 1.000000
-1.000000 0.000000 0.000000 0.000000 0.000000 1.000000 1.000000 0.000000
0.000000 0.000000 0.000000 0.000000 0.000000 1.000000 0.000000 0.000000
1.000000 -1.000000 -0.000000 0.707083 -0.707083 0.000000 1.000000 1.000000
1.000000 0.000000 0.000000 0.000000 0.000000 -1.000000 1.000000 0.000000
-1.000000 1.000000 0.000000 -0.707083 0.707083 0.000000 1.000000 1.000000
0.000000 1.000000 0.000000 0.000000 0.000000 -1.000000 0.000000 1.000000
1.000000 1.000000 0.000000 0.000000 0.000000 -1.000000 1.000000 1.000000
3 0 1 2
3 2 1 3
3 1 4 3
3 3 5 4
3 2 3 6
3 6 7 3
3 3 5 7
3 7 8 5
