<?xml version="1.0" encoding="UTF-8" standalone="no"?>
<!DOCTYPE svg PUBLIC "-//W3C//DTD SVG 1.1//EN"
 "http://www.w3.org/Graphics/SVG/1.1/DTD/svg11.dtd">
<!-- Generated by graphviz version 2.28.0 (20110507.0327)
 -->
<!-- Title: _anonymous_0 Pages: 1 -->
<svg width="388pt" height="354pt"
 viewBox="0.00 0.00 388.00 354.00" xmlns="http://www.w3.org/2000/svg" xmlns:xlink="http://www.w3.org/1999/xlink">
<g id="graph1" class="graph" transform="scale(1 1) rotate(0) translate(4 350)">
<title>_anonymous_0</title>
<polygon fill="white" stroke="white" points="-4,5 -4,-350 385,-350 385,5 -4,5"/>
<g id="graph2" class="cluster"><title>cluster_reason2</title>
<polygon fill="#fafaff" stroke="#fafaff" points="20,-8 360,-8 372,-20 372,-326 360,-338 20,-338 8,-326 8,-20 20,-8"/>
<path fill="#fafaff" stroke="#fafaff" d="M360,-8C366,-8 372,-14 372,-20"/>
<path fill="#fafaff" stroke="#fafaff" d="M372,-326C372,-332 366,-338 360,-338"/>
<path fill="#fafaff" stroke="#fafaff" d="M20,-338C14,-338 8,-332 8,-326"/>
<path fill="#fafaff" stroke="#fafaff" d="M8,-20C8,-14 14,-8 20,-8"/>
<polyline fill="none" stroke="black" points="20,-8 360,-8 "/>
<path fill="none" stroke="black" d="M360,-8C366,-8 372,-14 372,-20"/>
<polyline fill="none" stroke="black" points="372,-20 372,-326 "/>
<path fill="none" stroke="black" d="M372,-326C372,-332 366,-338 360,-338"/>
<polyline fill="none" stroke="black" points="360,-338 20,-338 "/>
<path fill="none" stroke="black" d="M20,-338C14,-338 8,-332 8,-326"/>
<polyline fill="none" stroke="black" points="8,-326 8,-20 "/>
<path fill="none" stroke="black" d="M8,-20C8,-14 14,-8 20,-8"/>
<text text-anchor="middle" x="190" y="-322.8" font-family="Times New Roman,serif" font-size="14.00">ModuleManager</text>
</g>
<g id="graph3" class="cluster"><title>cluster_reason0</title>
<polygon fill="#ddddee" stroke="#ddddee" points="28,-16 164,-16 176,-28 176,-295 164,-307 28,-307 16,-295 16,-28 28,-16"/>
<path fill="#ddddee" stroke="#ddddee" d="M164,-16C170,-16 176,-22 176,-28"/>
<path fill="#ddddee" stroke="#ddddee" d="M176,-295C176,-301 170,-307 164,-307"/>
<path fill="#ddddee" stroke="#ddddee" d="M28,-307C22,-307 16,-301 16,-295"/>
<path fill="#ddddee" stroke="#ddddee" d="M16,-28C16,-22 22,-16 28,-16"/>
<polyline fill="none" stroke="black" points="28,-16 164,-16 "/>
<path fill="none" stroke="black" d="M164,-16C170,-16 176,-22 176,-28"/>
<polyline fill="none" stroke="black" points="176,-28 176,-295 "/>
<path fill="none" stroke="black" d="M176,-295C176,-301 170,-307 164,-307"/>
<polyline fill="none" stroke="black" points="164,-307 28,-307 "/>
<path fill="none" stroke="black" d="M28,-307C22,-307 16,-301 16,-295"/>
<polyline fill="none" stroke="black" points="16,-295 16,-28 "/>
<path fill="none" stroke="black" d="M16,-28C16,-22 22,-16 28,-16"/>
<text text-anchor="middle" x="96" y="-291.8" font-family="Times New Roman,serif" font-size="14.00">BlackBoard</text>
</g>
<g id="graph4" class="cluster"><title>cluster_reason1</title>
<polygon fill="#fafaff" stroke="#fafaff" points="208,-70 352,-70 364,-82 364,-218 352,-230 208,-230 196,-218 196,-82 208,-70"/>
<path fill="#fafaff" stroke="#fafaff" d="M352,-70C358,-70 364,-76 364,-82"/>
<path fill="#fafaff" stroke="#fafaff" d="M364,-218C364,-224 358,-230 352,-230"/>
<path fill="#fafaff" stroke="#fafaff" d="M208,-230C202,-230 196,-224 196,-218"/>
<path fill="#fafaff" stroke="#fafaff" d="M196,-82C196,-76 202,-70 208,-70"/>
<polyline fill="none" stroke="none" points="208,-70 352,-70 "/>
<path fill="none" stroke="none" d="M352,-70C358,-70 364,-76 364,-82"/>
<polyline fill="none" stroke="none" points="364,-82 364,-218 "/>
<path fill="none" stroke="none" d="M364,-218C364,-224 358,-230 352,-230"/>
<polyline fill="none" stroke="none" points="352,-230 208,-230 "/>
<path fill="none" stroke="none" d="M208,-230C202,-230 196,-224 196,-218"/>
<polyline fill="none" stroke="none" points="196,-218 196,-82 "/>
<path fill="none" stroke="none" d="M196,-82C196,-76 202,-70 208,-70"/>
</g>
<!-- r0 -->
<g id="node3" class="node"><title>r0</title>
<polygon fill="#6666aa" stroke="#6666aa" points="156,-276 36,-276 24,-264 24,-252 36,-240 156,-240 168,-252 168,-264 156,-276"/>
<path fill="#6666aa" stroke="#6666aa" d="M36,-276C30,-276 24,-270 24,-264"/>
<path fill="#6666aa" stroke="#6666aa" d="M24,-252C24,-246 30,-240 36,-240"/>
<path fill="#6666aa" stroke="#6666aa" d="M156,-240C162,-240 168,-246 168,-252"/>
<path fill="#6666aa" stroke="#6666aa" d="M168,-264C168,-270 162,-276 156,-276"/>
<polyline fill="none" stroke="#6666aa" points="156,-276 36,-276 "/>
<path fill="none" stroke="#6666aa" d="M36,-276C30,-276 24,-270 24,-264"/>
<polyline fill="none" stroke="#6666aa" points="24,-264 24,-252 "/>
<path fill="none" stroke="#6666aa" d="M24,-252C24,-246 30,-240 36,-240"/>
<polyline fill="none" stroke="#6666aa" points="36,-240 156,-240 "/>
<path fill="none" stroke="#6666aa" d="M156,-240C162,-240 168,-246 168,-252"/>
<polyline fill="none" stroke="#6666aa" points="168,-252 168,-264 "/>
<path fill="none" stroke="#6666aa" d="M168,-264C168,-270 162,-276 156,-276"/>
<text text-anchor="middle" x="96" y="-254.3" font-family="Times New Roman,serif" font-size="14.00">Image</text>
</g>
<!-- m0 -->
<g id="node9" class="node"><title>m0</title>
<ellipse fill="#aa6666" stroke="#aa6666" cx="280" cy="-204" rx="72" ry="18"/>
<text text-anchor="middle" x="280" y="-200.3" font-family="Times New Roman,serif" font-size="14.00">ImageProcessor</text>
</g>
<!-- r0&#45;&gt;m0 -->
<g id="edge5" class="edge"><title>r0&#45;&gt;m0</title>
<path fill="none" stroke="forestgreen" d="M157.856,-239.944C178.999,-233.671 202.589,-226.671 223.294,-220.528"/>
<polygon fill="forestgreen" stroke="forestgreen" points="224.302,-223.88 232.893,-217.68 222.311,-217.169 224.302,-223.88"/>
</g>
<!-- r1 -->
<g id="node4" class="node"><title>r1</title>
<polygon fill="#6666aa" stroke="#6666aa" points="156,-222 36,-222 24,-210 24,-198 36,-186 156,-186 168,-198 168,-210 156,-222"/>
<path fill="#6666aa" stroke="#6666aa" d="M36,-222C30,-222 24,-216 24,-210"/>
<path fill="#6666aa" stroke="#6666aa" d="M24,-198C24,-192 30,-186 36,-186"/>
<path fill="#6666aa" stroke="#6666aa" d="M156,-186C162,-186 168,-192 168,-198"/>
<path fill="#6666aa" stroke="#6666aa" d="M168,-210C168,-216 162,-222 156,-222"/>
<polyline fill="none" stroke="#6666aa" points="156,-222 36,-222 "/>
<path fill="none" stroke="#6666aa" d="M36,-222C30,-222 24,-216 24,-210"/>
<polyline fill="none" stroke="#6666aa" points="24,-210 24,-198 "/>
<path fill="none" stroke="#6666aa" d="M24,-198C24,-192 30,-186 36,-186"/>
<polyline fill="none" stroke="#6666aa" points="36,-186 156,-186 "/>
<path fill="none" stroke="#6666aa" d="M156,-186C162,-186 168,-192 168,-198"/>
<polyline fill="none" stroke="#6666aa" points="168,-198 168,-210 "/>
<path fill="none" stroke="#6666aa" d="M168,-210C168,-216 162,-222 156,-222"/>
<text text-anchor="middle" x="96" y="-200.3" font-family="Times New Roman,serif" font-size="14.00">ColorTable</text>
</g>
<!-- r1&#45;&gt;m0 -->
<g id="edge7" class="edge"><title>r1&#45;&gt;m0</title>
<path fill="none" stroke="forestgreen" d="M168.148,-204C177.841,-204 187.851,-204 197.706,-204"/>
<polygon fill="forestgreen" stroke="forestgreen" points="197.902,-207.5 207.902,-204 197.901,-200.5 197.902,-207.5"/>
</g>
<!-- r2 -->
<g id="node5" class="node"><title>r2</title>
<polygon fill="#6666aa" stroke="#6666aa" points="156,-168 36,-168 24,-156 24,-144 36,-132 156,-132 168,-144 168,-156 156,-168"/>
<path fill="#6666aa" stroke="#6666aa" d="M36,-168C30,-168 24,-162 24,-156"/>
<path fill="#6666aa" stroke="#6666aa" d="M24,-144C24,-138 30,-132 36,-132"/>
<path fill="#6666aa" stroke="#6666aa" d="M156,-132C162,-132 168,-138 168,-144"/>
<path fill="#6666aa" stroke="#6666aa" d="M168,-156C168,-162 162,-168 156,-168"/>
<polyline fill="none" stroke="#6666aa" points="156,-168 36,-168 "/>
<path fill="none" stroke="#6666aa" d="M36,-168C30,-168 24,-162 24,-156"/>
<polyline fill="none" stroke="#6666aa" points="24,-156 24,-144 "/>
<path fill="none" stroke="#6666aa" d="M24,-144C24,-138 30,-132 36,-132"/>
<polyline fill="none" stroke="#6666aa" points="36,-132 156,-132 "/>
<path fill="none" stroke="#6666aa" d="M156,-132C162,-132 168,-138 168,-144"/>
<polyline fill="none" stroke="#6666aa" points="168,-144 168,-156 "/>
<path fill="none" stroke="#6666aa" d="M168,-156C168,-162 162,-168 156,-168"/>
<text text-anchor="middle" x="96" y="-146.3" font-family="Times New Roman,serif" font-size="14.00">BallPercept</text>
</g>
<!-- m1 -->
<g id="node10" class="node"><title>m1</title>
<ellipse fill="#aa6666" stroke="#aa6666" cx="280" cy="-150" rx="72" ry="18"/>
<text text-anchor="middle" x="280" y="-146.3" font-family="Times New Roman,serif" font-size="14.00">BallLocator</text>
</g>
<!-- r2&#45;&gt;m1 -->
<g id="edge11" class="edge"><title>r2&#45;&gt;m1</title>
<path fill="none" stroke="forestgreen" d="M168.148,-150C177.841,-150 187.851,-150 197.706,-150"/>
<polygon fill="forestgreen" stroke="forestgreen" points="197.902,-153.5 207.902,-150 197.901,-146.5 197.902,-153.5"/>
</g>
<!-- m2 -->
<g id="node11" class="node"><title>m2</title>
<ellipse fill="#aa6666" stroke="#aa6666" cx="280" cy="-96" rx="75.2868" ry="18"/>
<text text-anchor="middle" x="280" y="-92.3" font-family="Times New Roman,serif" font-size="14.00">BehaviorExecutor</text>
</g>
<!-- r2&#45;&gt;m2 -->
<g id="edge15" class="edge"><title>r2&#45;&gt;m2</title>
<path fill="none" stroke="forestgreen" d="M157.856,-131.944C178.637,-125.778 201.782,-118.911 222.228,-112.845"/>
<polygon fill="forestgreen" stroke="forestgreen" points="223.435,-116.137 232.026,-109.937 221.444,-109.426 223.435,-116.137"/>
</g>
<!-- r3 -->
<g id="node6" class="node"><title>r3</title>
<polygon fill="#6666aa" stroke="#6666aa" points="156,-114 36,-114 24,-102 24,-90 36,-78 156,-78 168,-90 168,-102 156,-114"/>
<path fill="#6666aa" stroke="#6666aa" d="M36,-114C30,-114 24,-108 24,-102"/>
<path fill="#6666aa" stroke="#6666aa" d="M24,-90C24,-84 30,-78 36,-78"/>
<path fill="#6666aa" stroke="#6666aa" d="M156,-78C162,-78 168,-84 168,-90"/>
<path fill="#6666aa" stroke="#6666aa" d="M168,-102C168,-108 162,-114 156,-114"/>
<polyline fill="none" stroke="#6666aa" points="156,-114 36,-114 "/>
<path fill="none" stroke="#6666aa" d="M36,-114C30,-114 24,-108 24,-102"/>
<polyline fill="none" stroke="#6666aa" points="24,-102 24,-90 "/>
<path fill="none" stroke="#6666aa" d="M24,-90C24,-84 30,-78 36,-78"/>
<polyline fill="none" stroke="#6666aa" points="36,-78 156,-78 "/>
<path fill="none" stroke="#6666aa" d="M156,-78C162,-78 168,-84 168,-90"/>
<polyline fill="none" stroke="#6666aa" points="168,-90 168,-102 "/>
<path fill="none" stroke="#6666aa" d="M168,-102C168,-108 162,-114 156,-114"/>
<text text-anchor="middle" x="96" y="-92.3" font-family="Times New Roman,serif" font-size="14.00">BallModel</text>
</g>
<!-- r3&#45;&gt;m2 -->
<g id="edge17" class="edge"><title>r3&#45;&gt;m2</title>
<path fill="none" stroke="forestgreen" d="M168.148,-96C176.747,-96 185.595,-96 194.363,-96"/>
<polygon fill="forestgreen" stroke="forestgreen" points="194.6,-99.5001 204.6,-96 194.6,-92.5001 194.6,-99.5001"/>
</g>
<!-- r4 -->
<g id="node7" class="node"><title>r4</title>
<polygon fill="#6666aa" stroke="#6666aa" points="156,-60 36,-60 24,-48 24,-36 36,-24 156,-24 168,-36 168,-48 156,-60"/>
<path fill="#6666aa" stroke="#6666aa" d="M36,-60C30,-60 24,-54 24,-48"/>
<path fill="#6666aa" stroke="#6666aa" d="M24,-36C24,-30 30,-24 36,-24"/>
<path fill="#6666aa" stroke="#6666aa" d="M156,-24C162,-24 168,-30 168,-36"/>
<path fill="#6666aa" stroke="#6666aa" d="M168,-48C168,-54 162,-60 156,-60"/>
<polyline fill="none" stroke="#6666aa" points="156,-60 36,-60 "/>
<path fill="none" stroke="#6666aa" d="M36,-60C30,-60 24,-54 24,-48"/>
<polyline fill="none" stroke="#6666aa" points="24,-48 24,-36 "/>
<path fill="none" stroke="#6666aa" d="M24,-36C24,-30 30,-24 36,-24"/>
<polyline fill="none" stroke="#6666aa" points="36,-24 156,-24 "/>
<path fill="none" stroke="#6666aa" d="M156,-24C162,-24 168,-30 168,-36"/>
<polyline fill="none" stroke="#6666aa" points="168,-36 168,-48 "/>
<path fill="none" stroke="#6666aa" d="M168,-48C168,-54 162,-60 156,-60"/>
<text text-anchor="middle" x="96" y="-38.3" font-family="Times New Roman,serif" font-size="14.00">MotionRequest</text>
</g>
<!-- m0&#45;&gt;r2 -->
<g id="edge9" class="edge"><title>m0&#45;&gt;r2</title>
<path fill="none" stroke="crimson" d="M232.893,-190.32C213.058,-184.435 189.425,-177.423 167.473,-170.91"/>
<polygon fill="crimson" stroke="crimson" points="168.439,-167.545 157.856,-168.056 166.448,-174.256 168.439,-167.545"/>
</g>
<!-- m1&#45;&gt;r3 -->
<g id="edge13" class="edge"><title>m1&#45;&gt;r3</title>
<path fill="none" stroke="crimson" d="M232.893,-136.32C213.058,-130.435 189.425,-123.423 167.473,-116.91"/>
<polygon fill="crimson" stroke="crimson" points="168.439,-113.545 157.856,-114.056 166.448,-120.256 168.439,-113.545"/>
</g>
<!-- m2&#45;&gt;r4 -->
<g id="edge19" class="edge"><title>m2&#45;&gt;r4</title>
<path fill="none" stroke="crimson" d="M232.026,-82.0627C212.422,-76.2461 189.226,-69.3639 167.642,-62.9596"/>
<polygon fill="crimson" stroke="crimson" points="168.439,-59.5454 157.856,-60.0563 166.448,-66.2563 168.439,-59.5454"/>
</g>
</g>
</svg>
